HIERARCHY
ROOT Hips
{
	OFFSET 0.00000 0.00000 0.00000
	CHANNELS 6 Xposition Yposition Zposition Zrotation Yrotation Xrotation 
	JOINT LHipJoint
	{
		OFFSET 0 0 0
		CHANNELS 3 Zrotation Yrotation Xrotation
		JOINT LeftHip
		{
			OFFSET 1.44960 -1.75505 0.85172
			CHANNELS 3 Zrotation Yrotation Xrotation
			JOINT LeftKnee
			{
				OFFSET 2.40573 -6.60971 0.00000
				CHANNELS 3 Zrotation Yrotation Xrotation
				JOINT LeftAnkle
				{
					OFFSET 2.58773 -7.10974 0.00000
					CHANNELS 3 Zrotation Yrotation Xrotation
					JOINT LeftToe
					{
						OFFSET 0.18252 -0.50147 1.77316
						CHANNELS 3 Zrotation Yrotation Xrotation
						End Site
						{
							OFFSET 0.00000 -0.00000 0.92990
						}
					}
				}
			}
		}
	}
	JOINT RHipJoint
	{
		OFFSET 0 0 0
		CHANNELS 3 Zrotation Yrotation Xrotation
		JOINT RightHip
		{
			OFFSET -1.40744 -1.75505 0.85172
			CHANNELS 3 Zrotation Yrotation Xrotation
			JOINT RightKnee
			{
				OFFSET -2.43714 -6.69600 0.00000
				CHANNELS 3 Zrotation Yrotation Xrotation
				JOINT RightAnkle
				{
					OFFSET -2.51650 -6.91404 0.00000
					CHANNELS 3 Zrotation Yrotation Xrotation
					JOINT RightToe
					{
						OFFSET -0.25383 -0.69740 1.96384
						CHANNELS 3 Zrotation Yrotation Xrotation
						End Site
						{
							OFFSET -0.00000 -0.00000 1.04244
						}
					}
				}
			}
		}
	}
	JOINT lowerback
	{
		OFFSET 0 0 0
		CHANNELS 3 Zrotation Yrotation Xrotation
		JOINT Chest
		{
			OFFSET 0.00579 2.14458 -0.24367
			CHANNELS 3 Zrotation Yrotation Xrotation
			JOINT Chest2
			{
				OFFSET 0.05899 2.16316 -0.04515
				CHANNELS 3 Zrotation Yrotation Xrotation
				JOINT lowerneck
				{
					OFFSET 0 0 0
					CHANNELS 3 Zrotation Yrotation Xrotation
					JOINT Neck
					{
						OFFSET -0.01650 1.59577 0.24841
						CHANNELS 3 Zrotation Yrotation Xrotation
						JOINT Head
						{
							OFFSET -0.01016 1.63072 -0.17782
							CHANNELS 3 Zrotation Yrotation Xrotation
							End Site
							{
								OFFSET -0.00250 1.64111 -0.08717
							}
						}
					}
				}
				JOINT LeftCollar
				{
					OFFSET 0 0 0
					CHANNELS 3 Zrotation Yrotation Xrotation
					JOINT LeftShoulder
					{
						OFFSET 3.17745 0.95174 -0.45729
CHANNELS 3 Zrotation Xrotation Yrotation
						JOINT LeftElbow
						{
OFFSET 0 -4.934850 0.000000
CHANNELS 3 Zrotation Xrotation Yrotation
							JOINT LeftWrist
							{
OFFSET 0 -3.417190 -0.000000
CHANNELS 3 Zrotation Xrotation Yrotation
								JOINT lhand
								{
									OFFSET 0 0 0
CHANNELS 3 Zrotation Xrotation Yrotation
									JOINT LFingers
									{
OFFSET 0 -0.624100 -0.000000
CHANNELS 3 Zrotation Xrotation Yrotation
										End Site
										{
OFFSET 0 -0.503170 -0.000000
										}
									}
								}
								JOINT LThumb
								{
OFFSET 0 0.000000 0.000000
CHANNELS 3 Zrotation Xrotation Yrotation
									End Site
									{
OFFSET 0 -0.510850 0.510850
									}
								}
							}
						}
					}
				}
				JOINT RightCollar
				{
					OFFSET 0 0 0
					CHANNELS 3 Zrotation Yrotation Xrotation
					JOINT RightShoulder
					{
						OFFSET -2.87924 1.13038 -0.75204
CHANNELS 3 Zrotation Xrotation Yrotation
						JOINT RightElbow
						{
OFFSET 0 -5.220340 0.000000
CHANNELS 3 Zrotation Xrotation Yrotation
							JOINT RightWrist
							{
OFFSET 0 -3.418090 -0.000000
CHANNELS 3 Zrotation Xrotation Yrotation
								JOINT rhand
								{
									OFFSET 0 0 0
CHANNELS 3 Zrotation Xrotation Yrotation
									JOINT RFingers
									{
OFFSET 0 -0.775340 -0.000000
CHANNELS 3 Zrotation Xrotation Yrotation
										End Site
										{
OFFSET 0 -0.625100 -0.000000
										}
									}
								}
								JOINT RThumb
								{
OFFSET 0 0.000000 0.000000
CHANNELS 3 Zrotation Xrotation Yrotation
									End Site
									{
OFFSET 0 -0.634640 0.634640
									}
								}
							}
						}
					}
				}
			}
		}
	}
}
MOTION
Frames: 9
Frame Time: 0.008333333333333333
0.160834 17.238955 -31.266457 -5.409900 0.081863 11.183741 0.000000 0.000000 0.000000 -12.125672 -15.890512 -38.750116 1.602805 7.984421 22.666791 0.437127 -6.831042 -11.991183 0.000998 0.206223 0.566606 0.000000 0.000000 0.000000 30.687637 -0.729830 12.877874 0.000000 0.000000 0.000000 -0.159142 -10.095565 -16.693861 -0.022689 -0.957102 2.630875 1.631435 2.988875 4.169512 5.437531 4.113473 1.578283 4.487095 2.055210 -0.997280 -9.201376 -0.906075 -17.169044 -6.132437 2.306658 15.509671 -0.279399 -0.051872 7.671285 0.000000 0.000000 0.000000 0.222300 13.540226 -23.366341 18.488792 -28.778412 4.782322 -0.941295 5.143716 -42.318849 0.000000 0.000000 0.000000 -7.125000 0.000000 0.000000 -49.463482 65.690806 27.594108 0.000000 0.000000 0.000000 -11.848642 -5.723059 -17.045423 -4.590162 -7.891487 -0.317065 -11.355798 2.719493 -11.610700 0.000000 0.000000 0.000000 7.125000 0.000000 0.000000 11.041974 18.266818 7.158458
0.178991 17.232741 -31.090221 -5.430405 -0.211276 11.361386 0.000000 0.000000 0.000000 -12.216707 -15.990473 -38.199795 1.613039 8.008725 22.740531 0.400755 -7.051511 -11.575857 0.000852 0.186201 0.511567 0.000000 0.000000 0.000000 30.488298 -0.788795 13.311915 0.000000 0.000000 0.000000 -0.106917 -10.113248 -16.005175 -0.004510 -0.408790 1.123244 1.484793 3.022448 3.880816 5.321502 4.145326 1.442803 4.457954 2.072245 -0.979452 -9.318688 -0.841458 -17.160003 -5.915562 2.389326 15.602851 -0.179855 -0.003583 7.694398 0.000000 0.000000 0.000000 0.137658 13.837554 -22.615598 18.246546 -28.471570 4.666171 -1.102937 5.324244 -41.855189 0.000000 0.000000 0.000000 -7.125000 0.000000 0.000000 -48.844219 65.340098 26.792921 0.000000 0.000000 0.000000 -11.816555 -5.678958 -16.745961 -4.582505 -7.878529 -0.315955 -11.100667 2.585344 -12.302163 0.000000 0.000000 0.000000 7.125000 0.000000 0.000000 11.194287 17.591343 7.432542
0.196261 17.229335 -30.907034 -5.438607 -0.349917 11.385326 0.000000 0.000000 0.000000 -12.251596 -16.369615 -37.511331 1.636572 8.064045 22.908685 0.344936 -6.928817 -10.813473 0.001303 0.229622 0.630944 0.000000 0.000000 0.000000 30.287284 -1.074320 13.854288 0.000000 0.000000 0.000000 -0.066624 -10.015020 -15.298229 -0.000939 -0.195597 0.537330 1.309697 3.166421 3.715966 5.211571 4.328869 1.333356 4.437421 2.165553 -1.017050 -9.328953 -0.902899 -17.080740 -5.722752 2.270084 15.710442 -0.128038 -0.046120 7.713773 0.000000 0.000000 0.000000 0.325840 13.929521 -22.711494 18.017121 -28.178907 4.557402 -1.133686 5.367291 -42.029829 0.000000 0.000000 0.000000 -7.125000 0.000000 0.000000 -49.163020 65.445645 27.122885 0.000000 0.000000 0.000000 -11.745224 -5.419849 -16.922400 -4.731353 -8.130575 -0.336483 -10.862675 2.465976 -11.777343 0.000000 0.000000 0.000000 7.125000 0.000000 0.000000 11.377725 18.127223 7.421262
0.220547 17.242441 -30.716699 -5.258414 -0.437075 11.494292 0.000000 0.000000 0.000000 -12.718928 -16.338120 -37.129243 1.660959 8.120863 23.081876 0.239260 -7.266170 -9.412056 0.008610 0.581720 1.598500 0.000000 0.000000 0.000000 29.836624 -1.385627 14.291813 0.000000 0.000000 0.000000 -0.018765 -9.893766 -14.395879 -0.000267 -0.096080 0.263973 1.060103 3.233431 3.612226 5.010310 4.415400 1.094689 4.360785 2.211975 -1.213645 -9.228279 -0.902442 -17.062804 -5.578583 2.237621 15.977451 -0.100343 -0.055451 7.797355 0.000000 0.000000 0.000000 0.410540 14.118186 -22.336933 17.675973 -27.740051 4.397524 -1.353894 5.449899 -41.920359 0.000000 0.000000 0.000000 -7.125000 0.000000 0.000000 -49.183523 65.309542 26.988522 0.000000 0.000000 0.000000 -11.578748 -5.100385 -16.930323 -4.807686 -8.259728 -0.347317 -10.358879 1.987721 -12.343777 0.000000 0.000000 0.000000 7.125000 0.000000 0.000000 11.704390 17.591188 7.784772
0.244236 17.265272 -30.528435 -4.788760 -0.384363 11.554960 0.000000 0.000000 0.000000 -13.523657 -16.340465 -36.710395 1.677337 8.158838 23.197627 0.129254 -7.587422 -7.786330 0.033379 1.162906 3.197348 0.000000 0.000000 0.000000 29.101511 -1.879133 14.659680 0.000000 0.000000 0.000000 0.046159 -9.867353 -13.254989 -0.000327 0.101596 -0.279093 0.701616 3.188209 3.373401 4.708164 4.332236 1.041338 4.263864 2.170655 -1.132223 -9.228679 -0.894651 -17.147082 -5.412738 2.239971 16.136484 -0.045487 -0.048164 7.861565 0.000000 0.000000 0.000000 0.590344 14.204712 -22.256648 17.527496 -27.547859 4.328454 -1.247871 5.847637 -41.494886 0.000000 0.000000 0.000000 -7.125000 0.000000 0.000000 -48.400215 65.057846 26.195007 0.000000 0.000000 0.000000 -11.443319 -5.136437 -16.853657 -4.775773 -8.205796 -0.342739 -10.499239 1.584415 -12.017990 0.000000 0.000000 0.000000 7.125000 0.000000 0.000000 11.619977 17.907115 7.643405
0.271706 17.286958 -30.335509 -4.235793 -0.258678 11.568579 0.000000 0.000000 0.000000 -14.497153 -16.212724 -36.244595 1.689590 8.187204 23.284223 0.042161 -7.939429 -6.405969 0.073286 1.740769 4.789920 0.000000 0.000000 0.000000 28.270236 -2.471039 15.037650 0.000000 0.000000 0.000000 0.120094 -9.965460 -11.987059 -0.003116 0.353018 -0.969954 0.428113 3.092114 3.200943 4.338268 4.188113 0.954180 4.047174 2.098729 -1.106831 -9.237342 -0.862395 -17.123493 -5.258218 2.267760 16.322311 0.010205 -0.029653 7.915842 0.000000 0.000000 0.000000 0.770945 14.265159 -21.934303 17.431408 -27.422985 4.284166 -1.780649 5.483009 -42.461089 0.000000 0.000000 0.000000 -7.125000 0.000000 0.000000 -50.469168 65.535698 28.111040 0.000000 0.000000 0.000000 -11.242335 -5.107555 -16.717691 -4.735935 -8.138367 -0.337138 -10.608647 1.309433 -12.311749 0.000000 0.000000 0.000000 7.125000 0.000000 0.000000 11.533604 17.609137 7.661340
0.296127 17.299899 -30.146384 -3.909384 -0.139214 11.434515 0.000000 0.000000 0.000000 -15.102820 -16.191621 -35.563526 1.710989 8.236173 23.433806 0.004973 -7.999519 -5.710467 0.105241 2.090454 5.755647 0.000000 0.000000 0.000000 27.768802 -2.770678 14.635909 -0.034784 -0.657339 1.810291 0.131621 -9.829330 -11.462206 -0.008047 0.576786 -1.585003 0.372202 3.061770 3.204004 4.004657 4.142459 0.911816 3.733337 2.075380 -1.128024 -9.152204 -0.837717 -17.025778 -5.084906 2.244925 16.477629 0.051998 -0.024130 7.947194 0.000000 0.000000 0.000000 1.171879 13.923771 -21.852885 16.932847 -26.768756 4.057205 -1.946253 5.808048 -41.798776 0.000000 0.000000 0.000000 -7.125000 0.000000 0.000000 -49.527590 65.058078 26.943372 0.000000 0.000000 0.000000 -10.982900 -4.901658 -16.730534 -4.835516 -8.306680 -0.351408 -9.962427 1.188250 -12.745968 0.000000 0.000000 0.000000 7.125000 0.000000 0.000000 11.961328 17.213986 8.064779
0.322702 17.308151 -29.950043 -3.708604 -0.099594 11.325742 0.000000 0.000000 0.000000 -15.816978 -15.401803 -35.134158 1.742994 8.308849 23.656269 -0.047727 -8.872845 -5.282414 0.124663 2.275903 6.268815 0.000000 0.000000 0.000000 27.564288 -2.111779 11.756462 -0.232836 -3.075228 8.490398 -0.036327 -8.698615 -13.059654 -0.009316 0.624321 -1.715635 0.130267 3.167419 3.105704 3.934039 4.273070 0.905699 3.794826 2.141423 -1.099879 -9.279697 -0.910263 -17.061096 -4.974830 2.180862 16.708499 0.100813 -0.063890 8.030380 0.000000 0.000000 0.000000 1.199831 13.550918 -22.020591 16.614268 -26.346372 3.914577 -1.906763 6.407453 -41.890576 0.000000 0.000000 0.000000 -7.125000 0.000000 0.000000 -49.639816 65.129878 27.097205 0.000000 0.000000 0.000000 -11.155310 -4.648189 -17.024938 -4.892198 -8.402424 -0.359559 -9.818782 0.986671 -12.810493 0.000000 0.000000 0.000000 7.125000 0.000000 0.000000 12.057287 17.157868 8.147622
0.347003 17.317850 -29.753544 -3.386435 -0.088718 11.024112 0.000000 0.000000 0.000000 -16.556208 -14.891516 -34.332379 1.772881 8.376043 23.862275 -0.070701 -9.505916 -5.337941 0.113786 2.175099 5.989881 0.000000 0.000000 0.000000 27.070341 -2.022574 10.446783 -0.488691 -4.462827 12.385730 -0.063690 -8.236263 -12.932674 -0.003719 0.370932 -1.019284 -0.224715 3.304995 3.132134 3.762409 4.442633 0.954674 3.807871 2.226243 -1.088733 -9.162151 -1.008914 -16.884024 -4.856586 1.974937 16.774295 0.098028 -0.141883 8.022564 0.000000 0.000000 0.000000 1.368765 13.128095 -21.807603 16.371190 -26.021308 3.807359 -2.945091 6.661882 -41.975169 0.000000 0.000000 0.000000 -7.125000 0.000000 0.000000 -50.720009 64.884441 27.552958 0.000000 0.000000 0.000000 -11.160789 -4.463739 -17.408389 -4.872577 -8.369352 -0.356794 -10.162620 0.589622 -12.833240 0.000000 0.000000 0.000000 7.125000 0.000000 0.000000 11.820974 17.116174 7.991755
